<?xml version="1.0" encoding="UTF-8" standalone="no"?>
<!-- Created with Inkscape (http://www.inkscape.org/) -->

<svg
   width="221.10384"
   height="77"
   viewBox="0 0 58.500384 20.372918"
   version="1.1"
   id="svg11017"
   inkscape:version="1.4.2 (f4327f4, 2025-05-13)"
   sodipodi:docname="logo-tagline.svg"
   xmlns:inkscape="http://www.inkscape.org/namespaces/inkscape"
   xmlns:sodipodi="http://sodipodi.sourceforge.net/DTD/sodipodi-0.dtd"
   xmlns="http://www.w3.org/2000/svg"
   xmlns:svg="http://www.w3.org/2000/svg">
  <sodipodi:namedview
     id="namedview11019"
     pagecolor="#ffffff"
     bordercolor="#666666"
     borderopacity="1.0"
     inkscape:pageshadow="2"
     inkscape:pageopacity="0.0"
     inkscape:pagecheckerboard="true"
     inkscape:document-units="px"
     showgrid="false"
     units="px"
     showborder="true"
     inkscape:zoom="1"
     inkscape:cx="-54"
     inkscape:cy="58.5"
     inkscape:window-width="1920"
     inkscape:window-height="991"
     inkscape:window-x="-9"
     inkscape:window-y="-9"
     inkscape:window-maximized="1"
     inkscape:current-layer="layer1"
     fit-margin-top="0"
     fit-margin-left="0"
     fit-margin-right="0"
     fit-margin-bottom="0"
     inkscape:snap-global="true"
     showguides="true"
     inkscape:guide-bbox="true"
     inkscape:snap-bbox="true"
     inkscape:bbox-paths="true"
     inkscape:bbox-nodes="true"
     inkscape:snap-bbox-edge-midpoints="true"
     inkscape:snap-bbox-midpoints="true"
     inkscape:object-paths="true"
     inkscape:snap-intersection-paths="true"
     inkscape:snap-smooth-nodes="true"
     inkscape:snap-midpoints="true"
     inkscape:snap-object-midpoints="true"
     inkscape:snap-center="true"
     inkscape:showpageshadow="2"
     inkscape:deskcolor="#d1d1d1" />
  <defs
     id="defs11014">
    <rect
       x="50"
       y="20"
       width="48"
       height="41"
       id="rect2" />
    <rect
       x="-230"
       y="199"
       width="147"
       height="100"
       id="rect7" />
    <rect
       x="283"
       y="275"
       width="102"
       height="99"
       id="rect5" />
    <rect
       x="-250"
       y="280"
       width="121"
       height="94"
       id="rect4" />
    <rect
       x="-180.85507"
       y="-131.41942"
       width="124.75065"
       height="135.82188"
       id="rect1919" />
  </defs>
  <g
     inkscape:label="Layer 1"
     inkscape:groupmode="layer"
     id="layer1"
     transform="translate(82.679119,14.611092)"
     style="display:inline">
    <g
       id="g4"
       transform="matrix(0.99956562,0,0,0.99956562,23.766243,19.299846)"
       style="fill:#293132;fill-opacity:1">
      <path
         d="m -103.94316,-30.0042 h -1.53105 v -1.886655 h 1.53105 v -1.01741 h -2.54846 v 6.825539 h 1.01741 v -2.904064 h 1.53105 z m 1.80763,-3.921475 h -1.01741 v 1.01741 h 1.01741 z m 0,2.03482 h -1.01741 v 5.808129 h 1.01741 z m 1.0174,0 v 1.017411 4.790718 h 1.01741 v -4.790718 h 0.829735 c 0.108655,0 0.197555,0.0889 0.197555,0.197555 v 4.593163 h 1.017411 v -4.790718 c 0,-0.563033 -0.454378,-1.017411 -1.017411,-1.017411 z m 6.12422,0 h -1.027288 c -0.563033,0 -1.017411,0.454378 -1.017411,1.017411 v 3.773308 c 0,0.553155 0.454378,1.01741 1.017411,1.01741 h 2.044698 v -7.842949 h -1.01741 z m -0.829733,4.790719 c -0.108655,0 -0.197555,-0.0889 -0.197555,-0.197555 v -3.378198 c 0,-0.118533 0.0889,-0.197555 0.197555,-0.197555 h 0.829733 v 3.773308 z m 6.055068,1.01741 h 1.027288 c 0.563033,0 1.017411,-0.464255 1.017411,-1.01741 v -3.773308 c 0,-0.563033 -0.454378,-1.017411 -1.017411,-1.017411 h -2.044698 v 7.84295 h 1.01741 z m 0.829733,-4.790718 c 0.108656,0 0.197555,0.07902 0.197555,0.197555 v 3.378198 c 0,0.108655 -0.0889,0.197555 -0.197555,0.197555 h -0.829733 v -3.773308 z m 4.178296,-1.017411 h -1.600199 v 1.017411 h 1.402644 c 0.108655,0 0.197555,0.07902 0.197555,0.197555 v 0.819855 h -1.027288 c -0.563033,0 -1.01741,0.454378 -1.01741,1.017411 v 1.738487 c 0,0.553155 0.454377,1.01741 1.01741,1.01741 h 2.044698 v -4.790718 c 0,-0.563033 -0.454377,-1.017411 -1.01741,-1.017411 z m 0,4.790719 h -0.829733 c -0.108655,0 -0.197555,-0.0889 -0.197555,-0.197555 v -1.343377 c 0,-0.118533 0.0889,-0.197555 0.197555,-0.197555 h 0.829733 z m 4.079519,-4.790719 h -1.027288 c -0.563033,0 -1.01741,0.454378 -1.01741,1.017411 v 4.790718 h 1.01741 v -4.593163 c 0,-0.108655 0.0889,-0.197555 0.197556,-0.197555 h 0.829732 z m 2.834927,1.017411 v -1.017411 h -1.027288 v -1.01741 h -1.017411 v 5.808129 c 0,0.563033 0.454378,1.01741 1.017411,1.01741 h 1.027288 v -1.01741 h -0.829733 c -0.108655,0 -0.197555,-0.0889 -0.197555,-0.197555 v -3.575753 z m 3.180645,2.173109 -1.412522,-1.323621 c -0.227188,-0.217311 -0.148166,-0.474133 -0.118533,-0.543277 0.02963,-0.06914 0.148167,-0.306211 0.454378,-0.306211 h 1.293987 v -1.017411 h -1.293987 c -0.325967,0 -0.6223,0.0889 -0.879122,0.276578 -0.237067,0.167922 -0.414866,0.395111 -0.523522,0.671688 -0.108655,0.276578 -0.138289,0.563033 -0.07902,0.849489 0.05927,0.306211 0.217311,0.582788 0.4445,0.809977 l 1.422399,1.323621 c 0.227188,0.217311 0.148166,0.474133 0.118533,0.543277 -0.02963,0.06915 -0.148167,0.316089 -0.454378,0.316089 h -1.560687 v 1.01741 h 1.560687 c 0.316089,0 0.6223,-0.09878 0.879122,-0.286455 0.227189,-0.167922 0.414866,-0.395111 0.523522,-0.671688 0.108655,-0.276578 0.128411,-0.563033 0.07902,-0.849489 -0.05927,-0.30621 -0.217311,-0.582788 -0.454377,-0.809977 z"
         id="path3"
         style="font-size:9.87777px;line-height:10.504px;font-family:GROTESKIA;-inkscape-font-specification:GROTESKIA;letter-spacing:0px;fill:#293132;stroke-width:0;fill-opacity:1" />
      <path
         d="m -101.56262,-21.386854 -0.6223,4.849985 -0.80997,-4.849985 h -1.03717 l -0.80998,4.849985 -0.62229,-4.849985 h -1.02729 l 0.68156,5.808129 h 1.73849 l 0.55316,-3.486853 0.56303,3.486853 h 1.73849 l 0.68156,-5.808129 z m 2.83493,0 v -2.034821 h -1.01741 v 7.84295 h 1.01741 v -4.790719 h 0.829733 c 0.108656,0 0.197555,0.07902 0.197555,0.197555 v 4.593164 h 1.017411 v -4.790719 c 0,-0.563033 -0.454378,-1.01741 -1.017411,-1.01741 z m 5.106809,0 h -1.027288 c -0.563033,0 -1.017411,0.454377 -1.017411,1.01741 v 3.773308 c 0,0.553155 0.454378,1.017411 1.017411,1.017411 h 1.787876 v -1.017411 h -1.610077 c -0.09878,0 -0.177799,-0.0889 -0.177799,-0.187677 v -1.195211 h 2.044698 v -2.39042 c 0,-0.563033 -0.454377,-1.01741 -1.01741,-1.01741 z m 0,2.39042 h -1.027288 v -1.19521 c 0,-0.09878 0.07902,-0.1778 0.177799,-0.1778 h 0.671689 c 0.09878,0 0.1778,0.07902 0.1778,0.1778 z m 4.07952,-2.39042 h -1.027288 c -0.563033,0 -1.017411,0.454377 -1.017411,1.01741 v 4.790719 h 1.017411 v -4.593164 c 0,-0.108655 0.0889,-0.197555 0.197555,-0.197555 h 0.829733 z m 2.834927,0 h -1.027289 c -0.563033,0 -1.01741,0.454377 -1.01741,1.01741 v 3.773308 c 0,0.553155 0.454377,1.017411 1.01741,1.017411 h 1.787877 v -1.017411 h -1.610077 c -0.09878,0 -0.1778,-0.0889 -0.1778,-0.187677 v -1.195211 h 2.044699 v -2.39042 c 0,-0.563033 -0.454378,-1.01741 -1.01741,-1.01741 z m 0,2.39042 h -1.027289 v -1.19521 c 0,-0.09878 0.07902,-0.1778 0.1778,-0.1778 h 0.671689 c 0.09878,0 0.1778,0.07902 0.1778,0.1778 z m 4.247446,-2.39042 -0.711199,5.04754 -0.721077,-5.04754 h -1.027288 l 0.879121,5.808129 h 1.738488 l 0.869244,-5.808129 z m 3.862213,0 h -1.027288 c -0.563033,0 -1.017411,0.454377 -1.017411,1.01741 v 3.773308 c 0,0.553155 0.454378,1.017411 1.017411,1.017411 h 1.787876 v -1.017411 h -1.610077 c -0.09878,0 -0.177799,-0.0889 -0.177799,-0.187677 v -1.195211 h 2.044698 v -2.39042 c 0,-0.563033 -0.454377,-1.01741 -1.01741,-1.01741 z m 0,2.39042 h -1.027288 v -1.19521 c 0,-0.09878 0.07902,-0.1778 0.177799,-0.1778 h 0.671689 c 0.09878,0 0.1778,0.07902 0.1778,0.1778 z m 4.079521,-2.39042 h -1.027288 c -0.563033,0 -1.017411,0.454377 -1.017411,1.01741 v 4.790719 h 1.017411 v -4.593164 c 0,-0.108655 0.0889,-0.197555 0.197555,-0.197555 h 0.829733 z m 5.008028,0 v 4.790718 h -0.829733 c -0.108655,0 -0.197555,-0.07902 -0.197555,-0.197555 v -4.593163 h -1.017411 v 4.790718 c 0,0.563033 0.454378,1.017411 1.017411,1.017411 h 1.027288 v 0.819855 c 0,0.118533 -0.0889,0.197555 -0.197555,0.197555 h -1.590322 v 1.01741 h 1.787877 c 0.563033,0 1.01741,-0.454377 1.01741,-1.01741 v -6.825539 z m 2.034823,1.01741 v 3.773308 c 0,0.553155 0.454377,1.017411 1.01741,1.017411 h 1.027288 c 0.563033,0 1.01741,-0.464256 1.01741,-1.017411 v -3.773308 c 0,-0.563033 -0.454377,-1.01741 -1.01741,-1.01741 h -1.027288 c -0.563033,0 -1.01741,0.454377 -1.01741,1.01741 z m 1.847143,3.773308 h -0.632178 c -0.108655,0 -0.197555,-0.0889 -0.197555,-0.197555 v -3.378198 c 0,-0.118533 0.0889,-0.197555 0.197555,-0.197555 h 0.632178 c 0.108655,0 0.197555,0.07902 0.197555,0.197555 v 3.378198 c 0,0.108655 -0.0889,0.197555 -0.197555,0.197555 z m 4.277076,-4.790718 v 4.593163 c 0,0.108655 -0.0889,0.197555 -0.197555,0.197555 h -0.632177 c -0.108656,0 -0.197556,-0.0889 -0.197556,-0.197555 v -4.593163 h -1.01741 v 4.790718 c 0,0.553155 0.454377,1.017411 1.01741,1.017411 h 1.027288 c 0.563033,0 1.017411,-0.464256 1.017411,-1.017411 v -4.790718 z m 5.225333,0 c -0.563033,0 -1.017411,0.454377 -1.017411,1.01741 v 3.773308 c 0,0.553155 0.454378,1.017411 1.017411,1.017411 h 1.027288 v 0.819855 c 0,0.108655 -0.0889,0.197555 -0.197555,0.197555 h -1.343377 v 1.01741 h 1.540932 c 0.563033,0 1.01741,-0.464255 1.01741,-1.01741 v -6.825539 z m 1.027288,4.790718 h -0.829733 c -0.108655,0 -0.197555,-0.0889 -0.197555,-0.197555 v -3.378198 c 0,-0.118533 0.0889,-0.197555 0.197555,-0.197555 h 0.829733 z m 2.034823,-3.773308 v 3.773308 c 0,0.553155 0.454377,1.017411 1.01741,1.017411 h 1.027288 c 0.563033,0 1.017411,-0.464256 1.017411,-1.017411 v -3.773308 c 0,-0.563033 -0.454378,-1.01741 -1.017411,-1.01741 h -1.027288 c -0.563033,0 -1.01741,0.454377 -1.01741,1.01741 z m 1.847143,3.773308 h -0.632178 c -0.108655,0 -0.197555,-0.0889 -0.197555,-0.197555 v -3.378198 c 0,-0.118533 0.0889,-0.197555 0.197555,-0.197555 h 0.632178 c 0.108655,0 0.197555,0.07902 0.197555,0.197555 v 3.378198 c 0,0.108655 -0.0889,0.197555 -0.197555,0.197555 z m 3.249788,0 h -1.01741 v 1.017411 h 1.01741 z"
         id="path4"
         style="font-size:9.87777px;line-height:10.504px;font-family:GROTESKIA;-inkscape-font-specification:GROTESKIA;letter-spacing:0px;fill:#293132;stroke-width:0;fill-opacity:1" />
    </g>
  </g>
</svg>
